/* XPM */
/* This file is a part of the NsCDE - Not so Common Desktop Environment */
static char * ArrowRightP_xpm[] = {
"32 32 4 1",
".      c #262c2db63752",
"#      c #443e51b862e6",
"@      c #50496024745a",
"+      c #aec5b619bf71",
"@..............................@",
".#############################+.",
".############################++.",
".##@@@@@@@@@@@@@@@@@@@@@@@@@@++.",
".##@@@@@@@@@@@@@@@@@@@@@@@@@@++.",
".##@@@@@@@@@@@@@@@@@@@@@@@@@@++.",
".##@@@@@@@@@@@@@@@@@@@@@@@@@@++.",
".##@@@@@..@@@@@@@@@@@@@@@@@@@++.",
".##@@@@@.@@.@@@@@@@@@@@@@@@@@++.",
".##@@@@@.@@@@.@@@@@@@@@@@@@@@++.",
".##@@@@@.@@@@@@.@@@@@@@@@@@@@++.",
".##@@@@@.@@@@@@@@.@@@@@@@@@@@++.",
".##@@@@@.@@@@@@@@@@.@@@@@@@@@++.",
".##@@@@@.@@@@@@@@@@@@.@@@@@@@++.",
".##@@@@@.@@@@@@@@@@@@@@.@@@@@++.",
".##@@@@@.@@@@@@@@@@@@@@@@.@@@++.",
".##@@@@@.@@@@@@@@@@@@@@@##@@@++.",
".##@@@@@.@@@@@@@@@@@@@##@@@@@++.",
".##@@@@@.@@@@@@@@@@@##@@@@@@@++.",
".##@@@@@.@@@@@@@@@##@@@@@@@@@++.",
".##@@@@@.@@@@@@@##@@@@@@@@@@@++.",
".##@@@@@.@@@@@##@@@@@@@@@@@@@++.",
".##@@@@@.@@@##@@@@@@@@@@@@@@@++.",
".##@@@@@.@##@@@@@@@@@@@@@@@@@++.",
".##@@@@@.#@@@@@@@@@@@@@@@@@@@++.",
".##@@@@@@@@@@@@@@@@@@@@@@@@@@++.",
".##@@@@@@@@@@@@@@@@@@@@@@@@@@++.",
".##@@@@@@@@@@@@@@@@@@@@@@@@@@++.",
".##@@@@@@@@@@@@@@@@@@@@@@@@@@++.",
".#+++++++++++++++++++++++++++++.",
".++++++++++++++++++++++++++++++.",
"@..............................@"};
