/* XPM */
/* This file is a part of the NsCDE - Not so Common Desktop Environment */
static char * Fpclock_xpm[] = {
"64 64 6 1",
".    s none  m none  c none",
"+    s bottomShadowColor m black c #2d6130a034c5",
"@    s topShadowColor m white c #b5bcb8d9bcd4",
"#    s background    m black c #5eaa656f6e14",
"$    s iconColor2    m white c white",
"%    s selectColor m white c #507656375d91",
"................................................................",
"................................................................",
"................................................................",
"................................................................",
"................................................................",
"................................................................",
"................................................................",
"..........++++++++++++++++++++++++++++++++++++++++++++..........",
".........++@@@@@@@@@@@@@@@@@@@@@@@@@@@@@@@@@@@@@@@@@@+@.........",
"........++@#####################$####################@+@........",
".......++@#####################$$$####################@+@.......",
".......+@#########$#############$############$#########+@.......",
".......+@#########%%%%%%%%%%%%%%%%%%%%%%%%%%%%#########+@.......",
".......+@########%%%%%%%%%%%%%%%%%%%%%%%%%%%%%%########+@.......",
".......+@#######%%%%%%%%%%%%%%%%%%%%%%%%%%%%%%%%#######+@.......",
".......+@######%%%%%%%%%%%%%%%%%%%%%%%%%%%%%%%%%%######+@.......",
".......+@#####%%%%%%%%%%%%%%%%%%%%%%%%%%%%%%%%%%%%#####+@.......",
".......+@####%%%%%%%%%%%%%%%%%%%%%%%%%%%%%%%%%%%%%%####+@.......",
".......+@##$%%%%%%%%%%%%%%%%%%%%%%%%%%%%%%%%%%%%%%%%$##+@.......",
".......+@###%%%%%%%%%%%%%%%%%%%%%%%%%%%%%%%%%%%%%%%%###+@.......",
".......+@###%%%%%%%%%%%%%%%%%%%%%%%%%%%%%%%%%%%%%%%%###+@.......",
".......+@###%%%%%%%%%%%%%%%%%%%%%%%%%%%%%%%%%%%%%%%%###+@.......",
".......+@###%%%%%%%%%%%%%%%%%%%%%%%%%%%%%%%%%%%%%%%%###+@.......",
".......+@###%%%%%%%%%%%%%%%%%%%%%%%%%%%%%%%%%%%%%%%%###+@.......",
".......+@###%%%%%%%%%%%%%%%%%%%%%%%%%%%%%%%%%%%%%%%%###+@.......",
".......+@###%%%%%%%%%%%%%%%%%%%%%%%%%%%%%%%%%%%%%%%%###+@.......",
".......+@###%%%%%%%%%%%%%%%%%%%%%%%%%%%%%%%%%%%%%%%%###+@.......",
".......+@###%%%%%%%%%%%%%%%%%%%%%%%%%%%%%%%%%%%%%%%%###+@.......",
".......+@###%%%%%%%%%%%%%%%%%%%%%%%%%%%%%%%%%%%%%%%%###+@.......",
".......+@###%%%%%%%%%%%%%%%%%%%%%%%%%%%%%%%%%%%%%%%%###+@.......",
".......+@###%%%%%%%%%%%%%%%%%%%%%%%%%%%%%%%%%%%%%%%%###+@.......",
".......+@#$#%%%%%%%%%%%%%%%%%%%%%%%%%%%%%%%%%%%%%%%%#$#+@.......",
".......+@$$$%%%%%%%%%%%%%%%%%%%%%%%%%%%%%%%%%%%%%%%%$$$+@.......",
".......+@#$#%%%%%%%%%%%%%%%%%%%%%%%%%%%%%%%%%%%%%%%%#$#+@.......",
".......+@###%%%%%%%%%%%%%%%%%%%%%%%%%%%%%%%%%%%%%%%%###+@.......",
".......+@###%%%%%%%%%%%%%%%%%%%%%%%%%%%%%%%%%%%%%%%%###+@.......",
".......+@###%%%%%%%%%%%%%%%%%%%%%%%%%%%%%%%%%%%%%%%%###+@.......",
".......+@###%%%%%%%%%%%%%%%%%%%%%%%%%%%%%%%%%%%%%%%%###+@.......",
".......+@###%%%%%%%%%%%%%%%%%%%%%%%%%%%%%%%%%%%%%%%%###+@.......",
".......+@###%%%%%%%%%%%%%%%%%%%%%%%%%%%%%%%%%%%%%%%%###+@.......",
".......+@###%%%%%%%%%%%%%%%%%%%%%%%%%%%%%%%%%%%%%%%%###+@.......",
".......+@###%%%%%%%%%%%%%%%%%%%%%%%%%%%%%%%%%%%%%%%%###+@.......",
".......+@###%%%%%%%%%%%%%%%%%%%%%%%%%%%%%%%%%%%%%%%%###+@.......",
".......+@###%%%%%%%%%%%%%%%%%%%%%%%%%%%%%%%%%%%%%%%%###+@.......",
".......+@###%%%%%%%%%%%%%%%%%%%%%%%%%%%%%%%%%%%%%%%%###+@.......",
".......+@##$%%%%%%%%%%%%%%%%%%%%%%%%%%%%%%%%%%%%%%%%$##+@.......",
".......+@####%%%%%%%%%%%%%%%%%%%%%%%%%%%%%%%%%%%%%%####+@.......",
".......+@#####%%%%%%%%%%%%%%%%%%%%%%%%%%%%%%%%%%%%#####+@.......",
".......+@######%%%%%%%%%%%%%%%%%%%%%%%%%%%%%%%%%%######+@.......",
".......+@#######%%%%%%%%%%%%%%%%%%%%%%%%%%%%%%%%#######+@.......",
".......+@########%%%%%%%%%%%%%%%%%%%%%%%%%%%%%%########+@.......",
".......+@#########%%%%%%%%%%%%%%%%%%%%%%%%%%%%#########+@.......",
".......+@#########$#############$############$#########+@.......",
".......++@#####################$$$####################+@@.......",
"........@+@#####################$####################+@@........",
".........@+++++++++++++++++++++++++++++++++++++++++++@@.........",
"..........@@@@@@@@@@@@@@@@@@@@@@@@@@@@@@@@@@@@@@@@@@@@..........",
"................................................................",
"................................................................",
"................................................................",
"................................................................",
"................................................................",
"................................................................",
"................................................................"};
