/* XPM */
/* This file is a part of the NsCDE - Not so Common Desktop Environment */
static char * FPSubArrowUp_xpm[] = {
"12 6 5 1",
"+      s None m None c None",
"#	s bottomShadowColor m black c #42aa43ad45b2",
".	s selectColor m black c #703371e6754c",
"$	s background m black c #840086008a00",
"@	s topShadowColor m white c #c882c967cb32",
"+++++#@+++++",
"++++#.$@++++",
"+++#.$.$@+++",
"++#.$.$.$@++",
"+#.$.$.$.$@+",
"#@@@@@@@@@@@"};
