/* XPM */
/* This file is a part of the NsCDE - Not so Common Desktop Environment */
static char * LastPressedFPS_xpm[] = {
"36 26 2 1",
".      s background m black c #e60093005300",
"+      s background m white c #be0086007100",
"++++++++++++++++++++++++++++++++++++",
"+..................................+",
"+.++++++++++++++++++++++++++++++++.+",
"+.++++++++++++++++++++++++++++++++.+",
"+.++++++++++++++++++++++++++++++++.+",
"+.++++++++++++++++++++++++++++++++.+",
"+.++++++++++++++++++++++++++++++++.+",
"+.++++++++++++++++++++++++++++++++.+",
"+.++++++++++++++++++++++++++++++++.+",
"+.++++++++++++++++++++++++++++++++.+",
"+.++++++++++++++++++++++++++++++++.+",
"+.++++++++++++++++++++++++++++++++.+",
"+.++++++++++++++++++++++++++++++++.+",
"+.++++++++++++++++++++++++++++++++.+",
"+.++++++++++++++++++++++++++++++++.+",
"+.++++++++++++++++++++++++++++++++.+",
"+.++++++++++++++++++++++++++++++++.+",
"+.++++++++++++++++++++++++++++++++.+",
"+.++++++++++++++++++++++++++++++++.+",
"+.++++++++++++++++++++++++++++++++.+",
"+.++++++++++++++++++++++++++++++++.+",
"+.++++++++++++++++++++++++++++++++.+",
"+.++++++++++++++++++++++++++++++++.+",
"+.++++++++++++++++++++++++++++++++.+",
"+..................................+",
"++++++++++++++++++++++++++++++++++++"};
