/* XPM */
/* This file is a part of the NsCDE - Not so Common Desktop Environment */
static char * LastPressedFPB_xpm[] = {
"62 60 3 1",
" 	c None",
".      c #e60093005300",
"+      c #be0086007100",
"++++++++++++++++++++++++++++++++++++++++++++++++++++++++++++++",
"+............................................................+",
"+.++++++++++++++++++++++++++++++++++++++++++++++++++++++++++.+",
"+.++++++++++++++++++++++++++++++++++++++++++++++++++++++++++.+",
"+.++++++++++++++++++++++++++++++++++++++++++++++++++++++++++.+",
"+.++++++++++++++++++++++++++++++++++++++++++++++++++++++++++.+",
"+.++++++++++++++++++++++++++++++++++++++++++++++++++++++++++.+",
"+.++++++++++++++++++++++++++++++++++++++++++++++++++++++++++.+",
"+.++++++++++++++++++++++++++++++++++++++++++++++++++++++++++.+",
"+.++++++++++++++++++++++++++++++++++++++++++++++++++++++++++.+",
"+.++++++++++++++++++++++++++++++++++++++++++++++++++++++++++.+",
"+.++++++++++++++++++++++++++++++++++++++++++++++++++++++++++.+",
"+.++++++++++++++++++++++++++++++++++++++++++++++++++++++++++.+",
"+.++++++++++++++++++++++++++++++++++++++++++++++++++++++++++.+",
"+.++++++++++++++++++++++++++++++++++++++++++++++++++++++++++.+",
"+.++++++++++++++++++++++++++++++++++++++++++++++++++++++++++.+",
"+.++++++++++++++++++++++++++++++++++++++++++++++++++++++++++.+",
"+.++++++++++++++++++++++++++++++++++++++++++++++++++++++++++.+",
"+.++++++++++++++++++++++++++++++++++++++++++++++++++++++++++.+",
"+.++++++++++++++++++++++++++++++++++++++++++++++++++++++++++.+",
"+.++++++++++++++++++++++++++++++++++++++++++++++++++++++++++.+",
"+.++++++++++++++++++++++++++++++++++++++++++++++++++++++++++.+",
"+.++++++++++++++++++++++++++++++++++++++++++++++++++++++++++.+",
"+.++++++++++++++++++++++++++++++++++++++++++++++++++++++++++.+",
"+.++++++++++++++++++++++++++++++++++++++++++++++++++++++++++.+",
"+.++++++++++++++++++++++++++++++++++++++++++++++++++++++++++.+",
"+.++++++++++++++++++++++++++++++++++++++++++++++++++++++++++.+",
"+.++++++++++++++++++++++++++++++++++++++++++++++++++++++++++.+",
"+.++++++++++++++++++++++++++++++++++++++++++++++++++++++++++.+",
"+.++++++++++++++++++++++++++++++++++++++++++++++++++++++++++.+",
"+.++++++++++++++++++++++++++++++++++++++++++++++++++++++++++.+",
"+.++++++++++++++++++++++++++++++++++++++++++++++++++++++++++.+",
"+.++++++++++++++++++++++++++++++++++++++++++++++++++++++++++.+",
"+.++++++++++++++++++++++++++++++++++++++++++++++++++++++++++.+",
"+.++++++++++++++++++++++++++++++++++++++++++++++++++++++++++.+",
"+.++++++++++++++++++++++++++++++++++++++++++++++++++++++++++.+",
"+.++++++++++++++++++++++++++++++++++++++++++++++++++++++++++.+",
"+.++++++++++++++++++++++++++++++++++++++++++++++++++++++++++.+",
"+.++++++++++++++++++++++++++++++++++++++++++++++++++++++++++.+",
"+.++++++++++++++++++++++++++++++++++++++++++++++++++++++++++.+",
"+.++++++++++++++++++++++++++++++++++++++++++++++++++++++++++.+",
"+.++++++++++++++++++++++++++++++++++++++++++++++++++++++++++.+",
"+.++++++++++++++++++++++++++++++++++++++++++++++++++++++++++.+",
"+.++++++++++++++++++++++++++++++++++++++++++++++++++++++++++.+",
"+.++++++++++++++++++++++++++++++++++++++++++++++++++++++++++.+",
"+.++++++++++++++++++++++++++++++++++++++++++++++++++++++++++.+",
"+.++++++++++++++++++++++++++++++++++++++++++++++++++++++++++.+",
"+.++++++++++++++++++++++++++++++++++++++++++++++++++++++++++.+",
"+.++++++++++++++++++++++++++++++++++++++++++++++++++++++++++.+",
"+.++++++++++++++++++++++++++++++++++++++++++++++++++++++++++.+",
"+.++++++++++++++++++++++++++++++++++++++++++++++++++++++++++.+",
"+.++++++++++++++++++++++++++++++++++++++++++++++++++++++++++.+",
"+.++++++++++++++++++++++++++++++++++++++++++++++++++++++++++.+",
"+.++++++++++++++++++++++++++++++++++++++++++++++++++++++++++.+",
"+.++++++++++++++++++++++++++++++++++++++++++++++++++++++++++.+",
"+.++++++++++++++++++++++++++++++++++++++++++++++++++++++++++.+",
"+.++++++++++++++++++++++++++++++++++++++++++++++++++++++++++.+",
"+.++++++++++++++++++++++++++++++++++++++++++++++++++++++++++.+",
"+............................................................+",
"++++++++++++++++++++++++++++++++++++++++++++++++++++++++++++++"};
