/* XPM */
/* This file is a part of the NsCDE - Not so Common Desktop Environment */
static char * PressedFPL_xpm[] = {
"30 24 3 1",
" 	c None",
".      s background m black c #443e51b862e6",
"+      s selectColor m black c #5af46c1681ef",
"..............................",
"...++++++++++++++++++++++++...",
"...++++++++++++++++++++++++...",
"...++++++++++++++++++++++++...",
"...++++++++++++++++++++++++...",
"...++++++++++++++++++++++++...",
"...++++++++++++++++++++++++...",
"...++++++++++++++++++++++++...",
"...++++++++++++++++++++++++...",
"...++++++++++++++++++++++++...",
"...++++++++++++++++++++++++...",
"...++++++++++++++++++++++++...",
"...++++++++++++++++++++++++...",
"...++++++++++++++++++++++++...",
"...++++++++++++++++++++++++...",
"...++++++++++++++++++++++++...",
"...++++++++++++++++++++++++...",
"...++++++++++++++++++++++++...",
"...++++++++++++++++++++++++...",
"...++++++++++++++++++++++++...",
"...++++++++++++++++++++++++...",
"...++++++++++++++++++++++++...",
"...++++++++++++++++++++++++...",
".............................."};
