/* XPM */
/* This file is a part of the NsCDE - Not so Common Desktop Environment */
static char * SubpanelTitleInactive_xpm[] = {
"16 18 3 1",
" 	c None",
"+      c #c882c967cb32",
".      c #42aa43ad45b2",
"++++++++++++++++",
"                ",
"                ",
"                ",
"                ",
"                ",
"                ",
"                ",
"                ",
"                ",
"                ",
"                ",
"                ",
"                ",
"                ",
"                ",
"                ",
"................"};
