/* XPM */
/* This file is a part of the NsCDE - Not so Common Desktop Environment */
static char * WSM2BackBtn1_xpm[] = {
"254 28 3 1",
"       s background   m black   c #5eaa656f6e14",
".      s topShadowColor   m white   c #b5bcb8d9bcd4",
"#      s bottomShadowColor   m white   c #2d6130a034c5",
"##############################################################################################################################################################################################################################################################",
"#                                                                                                                                                                                                                                                            .",
"#                                                                                                                                                                                                                                                            .",
"#                                                                                                                                                                                                                                                            .",
"#                                                                                                                                                                                                                                                            .",
"#                                                                                                                                                                                                                                                            .",
"#                                                                                                                                                                                                                                                            .",
"#                                                                                                                                                                                                                                                            .",
"#                                                                                                                                                                                                                                                            .",
"#                                                                                                                                                                                                                                                            .",
"#                                                                                                                                                                                                                                                            .",
"#                                                                                                                                                                                                                                                            .",
"#                                                                                                                                                                                                                                                            .",
"#                                                                                                                                                                                                                                                            .",
"#                                                                                                                                                                                                                                                            .",
"#                                                                                                                                                                                                                                                            .",
"#                                                                                                                                                                                                                                                            .",
"#                                                                                                                                                                                                                                                            .",
"#                                                                                                                                                                                                                                                            .",
"#                                                                                                                                                                                                                                                            .",
"#                                                                                                                                                                                                                                                            .",
"#                                                                                                                                                                                                                                                            .",
"#                                                                                                                                                                                                                                                            .",
"#                                                                                                                                                                                                                                                            .",
"#                                                                                                                                                                                                                                                            .",
"#                                                                                                                                                                                                                                                            .",
"#                                                                                                                                                                                                                                                            .",
"#............................................................................................................................................................................................................................................................."};
