/* XPM */
/* This file is a part of the NsCDE - Not so Common Desktop Environment */
static char * WSM2BackBtn1_xpm[] = {
"254 28 3 1",
"       s background   m black   c #3c0081008f00",
".      s topShadowColor   m white   c #a674c5facc5f",
"#      s bottomShadowColor   m white   c #1d2d3ebb458a",
"##############################################################################################################################################################################################################################################################",
"#                                                                                                                                                                                                                                                            .",
"#                                                                                                                                                                                                                                                            .",
"#                                                                                                                                                                                                                                                            .",
"#                                                                                                                                                                                                                                                            .",
"#                                                                                                                                                                                                                                                            .",
"#                                                                                                                                                                                                                                                            .",
"#                                                                                                                                                                                                                                                            .",
"#                                                                                                                                                                                                                                                            .",
"#                                                                                                                                                                                                                                                            .",
"#                                                                                                                                                                                                                                                            .",
"#                                                                                                                                                                                                                                                            .",
"#                                                                                                                                                                                                                                                            .",
"#                                                                                                                                                                                                                                                            .",
"#                                                                                                                                                                                                                                                            .",
"#                                                                                                                                                                                                                                                            .",
"#                                                                                                                                                                                                                                                            .",
"#                                                                                                                                                                                                                                                            .",
"#                                                                                                                                                                                                                                                            .",
"#                                                                                                                                                                                                                                                            .",
"#                                                                                                                                                                                                                                                            .",
"#                                                                                                                                                                                                                                                            .",
"#                                                                                                                                                                                                                                                            .",
"#                                                                                                                                                                                                                                                            .",
"#                                                                                                                                                                                                                                                            .",
"#                                                                                                                                                                                                                                                            .",
"#                                                                                                                                                                                                                                                            .",
"#............................................................................................................................................................................................................................................................."};
