/* XPM */
/* This file is a part of the NsCDE - Not so Common Desktop Environment */
static char * WSM4BackBtn4_xpm[] = {
"126 30 3 1",
"       s background   m black   c #500060009300",
".      s topShadowColor   m white   c #af36b68ecdf7",
"#      s bottomShadowColor   m white   c #268f2e4546da",
"##############################################################################################################################",
"#                                                                                                                            .",
"#                                                                                                                            .",
"#                                                                                                                            .",
"#                                                                                                                            .",
"#                                                                                                                            .",
"#                                                                                                                            .",
"#                                                                                                                            .",
"#                                                                                                                            .",
"#                                                                                                                            .",
"#                                                                                                                            .",
"#                                                                                                                            .",
"#                                                                                                                            .",
"#                                                                                                                            .",
"#                                                                                                                            .",
"#                                                                                                                            .",
"#                                                                                                                            .",
"#                                                                                                                            .",
"#                                                                                                                            .",
"#                                                                                                                            .",
"#                                                                                                                            .",
"#                                                                                                                            .",
"#                                                                                                                            .",
"#                                                                                                                            .",
"#                                                                                                                            .",
"#                                                                                                                            .",
"#                                                                                                                            .",
"#                                                                                                                            .",
"#                                                                                                                            .",
"#............................................................................................................................."};
