/* XPM */
/* This file is a part of the NsCDE - Not so Common Desktop Environment */
static char * WSM6BackBtn2_xpm[] = {
"84 28 3 1",
"       s background   m black   c #be0086007100",
".      s topShadowColor   m white   c #e2c5c9f9c0ac",
"#      s bottomShadowColor   m white   c #61ba44ec3a1f",
"####################################################################################",
"#                                                                                  .",
"#                                                                                  .",
"#                                                                                  .",
"#                                                                                  .",
"#                                                                                  .",
"#                                                                                  .",
"#                                                                                  .",
"#                                                                                  .",
"#                                                                                  .",
"#                                                                                  .",
"#                                                                                  .",
"#                                                                                  .",
"#                                                                                  .",
"#                                                                                  .",
"#                                                                                  .",
"#                                                                                  .",
"#                                                                                  .",
"#                                                                                  .",
"#                                                                                  .",
"#                                                                                  .",
"#                                                                                  .",
"#                                                                                  .",
"#                                                                                  .",
"#                                                                                  .",
"#                                                                                  .",
"#                                                                                  .",
"#..................................................................................."};
