/* XPM */
/* This file is a part of the NsCDE - Not so Common Desktop Environment */
static char * WSM8BackBtn3_xpm[] = {
"62 28 3 1",
"       s background   m black   c #e000cb00c100",
".      s topShadowColor   m white   c #f295e9c8e597",
"#      s bottomShadowColor   m white   c #7dd572096c6b",
"##############################################################",
"#                                                            .",
"#                                                            .",
"#                                                            .",
"#                                                            .",
"#                                                            .",
"#                                                            .",
"#                                                            .",
"#                                                            .",
"#                                                            .",
"#                                                            .",
"#                                                            .",
"#                                                            .",
"#                                                            .",
"#                                                            .",
"#                                                            .",
"#                                                            .",
"#                                                            .",
"#                                                            .",
"#                                                            .",
"#                                                            .",
"#                                                            .",
"#                                                            .",
"#                                                            .",
"#                                                            .",
"#                                                            .",
"#                                                            .",
"#............................................................."};
