/* XPM */
/* This file is a part of the NsCDE - Not so Common Desktop Environment */
static char * WSM8BackBtn3_xpm[] = {
"62 28 3 1",
"       s background   m black   c #50496024745a",
".      s topShadowColor   m white   c #aec5b619bf71",
"#      s bottomShadowColor   m white   c #262c2db63752",
"##############################################################",
"#                                                            .",
"#                                                            .",
"#                                                            .",
"#                                                            .",
"#                                                            .",
"#                                                            .",
"#                                                            .",
"#                                                            .",
"#                                                            .",
"#                                                            .",
"#                                                            .",
"#                                                            .",
"#                                                            .",
"#                                                            .",
"#                                                            .",
"#                                                            .",
"#                                                            .",
"#                                                            .",
"#                                                            .",
"#                                                            .",
"#                                                            .",
"#                                                            .",
"#                                                            .",
"#                                                            .",
"#                                                            .",
"#                                                            .",
"#............................................................."};
