/* XPM */
/* This file is a part of the NsCDE - Not so Common Desktop Environment */
static char * WSM8BackBtn4_xpm[] = {
"62 28 3 1",
"       s background   m black   c #736b736b8f83",
".      s topShadowColor   m white   c #c079c079cd2a",
"#      s bottomShadowColor   m white   c #394739474738",
"##############################################################",
"#                                                            .",
"#                                                            .",
"#                                                            .",
"#                                                            .",
"#                                                            .",
"#                                                            .",
"#                                                            .",
"#                                                            .",
"#                                                            .",
"#                                                            .",
"#                                                            .",
"#                                                            .",
"#                                                            .",
"#                                                            .",
"#                                                            .",
"#                                                            .",
"#                                                            .",
"#                                                            .",
"#                                                            .",
"#                                                            .",
"#                                                            .",
"#                                                            .",
"#                                                            .",
"#                                                            .",
"#                                                            .",
"#                                                            .",
"#............................................................."};
